<?xml version="1.0" encoding="utf-8"?>
<svg xmlns="http://www.w3.org/2000/svg" width="39" height="39" viewBox="0 0 39 39" fill="none">
<rect width="39" height="39" fill="black"/>
<path d="M11.9234 31.3923C11.647 30.1298 11.2323 28.838 10.7024 27.5461C10.1725 26.2249 9.57353 25.1386 8.90542 24.3165C8.23731 23.4944 7.45401 22.7604 6.57856 22.1732C5.68008 21.586 4.96589 21.175 4.43601 20.9695C3.90614 20.7639 2.96157 20.3823 1.62536 19.8831C1.57928 19.8831 1.5332 19.7657 1.5332 19.6482C1.5332 19.5308 1.55624 19.4134 1.62536 19.4134C1.78662 19.3546 2.36258 19.1785 3.35322 18.8262C4.34386 18.4738 5.35754 17.9454 6.37122 17.2701C7.40794 16.5948 8.26035 15.8314 8.90542 14.98C9.55049 14.1285 10.1264 13.1303 10.5872 12.0146C11.048 10.8696 11.3705 9.95939 11.5318 9.2841C11.7161 8.60882 11.9925 7.40505 12.3842 5.70216C12.3842 5.64344 12.4763 5.58472 12.5685 5.58472C12.6606 5.58472 12.7528 5.61408 12.7528 5.70216C12.7989 5.90768 12.9371 6.64168 13.2136 7.90417C13.49 9.16666 13.9047 10.4585 14.4346 11.7504C14.9645 13.0422 15.5635 14.1579 16.2316 14.98C16.8997 15.8314 17.683 16.5361 18.5584 17.1233C19.4569 17.7105 20.1711 18.1215 20.701 18.327C21.2308 18.5619 22.1754 18.9142 23.5116 19.4134C23.5577 19.4134 23.6038 19.5308 23.6038 19.6482C23.6038 19.7657 23.5807 19.8831 23.5116 19.8831C23.3504 19.9419 22.7744 20.118 21.7838 20.4703C20.7931 20.8227 19.7794 21.3511 18.7658 22.0264C17.729 22.7017 16.8766 23.4651 16.2316 24.3165C15.5635 25.168 15.0105 26.1662 14.5498 27.2819C14.089 28.4269 13.7665 29.3371 13.6052 30.0124C13.4209 30.6877 13.1444 31.8914 12.7528 33.5943C12.7528 33.6531 12.6606 33.7118 12.5685 33.7118C12.4763 33.7118 12.3842 33.6824 12.3842 33.5943C12.3381 33.3888 12.1999 32.6548 11.9234 31.3923Z" fill="white"/>
<path d="M25.7105 31.3923C25.4341 30.1298 25.0194 28.838 24.4895 27.5461C23.9596 26.2249 23.3606 25.1386 22.6925 24.3165C22.0244 23.4944 21.2411 22.7604 20.3657 22.1732C19.4672 21.586 18.753 21.175 18.2231 20.9695C17.6932 20.7639 16.7487 20.3823 15.4125 19.8831C15.3664 19.8831 15.3203 19.7657 15.3203 19.6482C15.3203 19.5308 15.3434 19.4134 15.4125 19.4134C15.5737 19.3546 16.1497 19.1785 17.1403 18.8262C18.131 18.4738 19.1446 17.9454 20.1583 17.2701C21.195 16.5948 22.0475 15.8314 22.6925 14.98C23.3376 14.1285 23.9136 13.1303 24.3743 12.0146C24.8351 10.8696 25.1576 9.95939 25.3189 9.2841C25.5032 8.60882 25.7796 7.40505 26.1713 5.70216C26.1713 5.64344 26.2634 5.58472 26.3556 5.58472C26.4478 5.58472 26.5399 5.61408 26.5399 5.70216C26.586 5.90768 26.7242 6.64168 27.0007 7.90417C27.2771 9.16666 27.6918 10.4585 28.2217 11.7504C28.7516 13.0422 29.3506 14.1579 30.0187 14.98C30.6868 15.8314 31.4701 16.5361 32.3455 17.1233C33.244 17.7105 33.9582 18.1215 34.4881 18.327C35.018 18.5619 35.9625 18.9142 37.2987 19.4134C37.3448 19.4134 37.3909 19.5308 37.3909 19.6482C37.3909 19.7657 37.3678 19.8831 37.2987 19.8831C37.1375 19.9419 36.5615 20.118 35.5709 20.4703C34.5802 20.8227 33.5665 21.3511 32.5529 22.0264C31.5162 22.7017 30.6637 23.4651 30.0187 24.3165C29.3506 25.168 28.7976 26.1662 28.3369 27.2819C27.8761 28.4269 27.5536 29.3371 27.3923 30.0124C27.208 30.6877 26.9316 31.8914 26.5399 33.5943C26.5399 33.6531 26.4478 33.7118 26.3556 33.7118C26.2634 33.7118 26.1713 33.6824 26.1713 33.5943C26.1252 33.3888 25.987 32.6548 25.7105 31.3923Z" fill="white"/>
</svg>