<?xml version="1.0" encoding="utf-8"?>
<svg xmlns="http://www.w3.org/2000/svg" width="39" height="39" viewBox="0 0 39 39" fill="none">
<g clip-path="url(#clip0_343_98)">
<rect width="39" height="39" fill="black"/>
<path d="M12.6326 19.0349H0.890625L13.2471 13.2396L18.9668 0.788574V12.6156C18.9857 16.1609 16.14 19.0444 12.6326 19.0444V19.0349Z" fill="white"/>
<path d="M26.5768 19.0349H38.3188L25.9623 13.2396L20.252 0.788574V12.6156C20.2331 16.1609 23.0788 19.0444 26.5863 19.0444L26.5768 19.0349Z" fill="white"/>
<path d="M26.5785 20.3585H38.3204L25.9639 26.1538L20.2442 38.6048V26.7778C20.2253 23.2325 23.071 20.349 26.5785 20.349V20.3585Z" fill="white"/>
<path d="M12.6326 20.3585H0.890625L13.2471 26.1538L18.9668 38.6048V26.7778C18.9857 23.2325 16.14 20.349 12.6326 20.349V20.3585Z" fill="white"/>
</g>
<defs>
<clipPath id="clip0_343_98">
<rect width="39" height="39" fill="white"/>
</clipPath>
</defs>
</svg>